P3
5 5
255
73
66
33
211
110
7
228
201
96
113
186
185
44
130
233
60
55
214
2
169
125
153
88
16
227
207
209
20
112
82
135
144
36
55
172
78
131
170
191
170
28
113
203
28
243
227
207
103
186
73
163
159
181
251
157
80
189
132
231
108
23
210
77
88
169
38
225
107
36
15
19
87
188
56
232